<?xml version="1.0" encoding="UTF-8"?>
<svg version="1.1" xmlns="http://www.w3.org/2000/svg" width="744" height="1052">
<path d="M0 0 C1.0204541 0.18804199 2.0409082 0.37608398 3.09228516 0.56982422 C41.42610476 7.76278007 79.11533533 22.30179333 111 45 C111.7130127 45.50547363 112.42602539 46.01094727 113.16064453 46.53173828 C123.3836638 53.8116716 132.92433237 61.33557356 142 70 C143.38817092 71.21712843 144.78325379 72.42645392 146.1875 73.625 C167.34843589 92.02008742 184.24033478 115.71649796 198 140 C198.39541992 140.69367676 198.79083984 141.38735352 199.19824219 142.10205078 C214.57565805 169.36312386 224.32333507 199.29803759 230 230 C230.16516113 230.84820312 230.33032227 231.69640625 230.50048828 232.5703125 C236.02224752 262.08060389 235.76894425 296.55467634 230 326 C229.81195801 327.0204541 229.62391602 328.0409082 229.43017578 329.09228516 C216.15303736 399.85087729 176.27248541 463.63440599 118 506 C117.41476562 506.42651855 116.82953125 506.85303711 116.2265625 507.29248047 C107.7990966 513.38805073 99.03341488 518.86015024 90 524 C89.30197266 524.39832031 88.60394531 524.79664063 87.88476562 525.20703125 C60.62817209 540.58004282 30.69580108 550.32447428 0 556 C-0.84820312 556.16516113 -1.69640625 556.33032227 -2.5703125 556.50048828 C-32.08060389 562.02224752 -66.55467634 561.76894425 -96 556 C-97.0204541 555.81195801 -98.0409082 555.62391602 -99.09228516 555.43017578 C-170.02818476 542.11976739 -233.38285948 502.20649364 -276 444 C-276.98033203 442.68128906 -276.98033203 442.68128906 -277.98046875 441.3359375 C-302.75202516 407.09117306 -318.34281015 367.41353382 -326 326 C-326.16516113 325.15179687 -326.33032227 324.30359375 -326.50048828 323.4296875 C-332.02224752 293.91939611 -331.76894425 259.44532366 -326 230 C-325.81195801 228.9795459 -325.62391602 227.9590918 -325.43017578 226.90771484 C-318.23721993 188.57389524 -303.69820667 150.88466467 -281 119 C-280.49452637 118.2869873 -279.98905273 117.57397461 -279.46826172 116.83935547 C-272.1883284 106.6163362 -264.66442644 97.07566763 -256 88 C-254.78287157 86.61182908 -253.57354608 85.21674621 -252.375 83.8125 C-233.97991258 62.65156411 -210.28350204 45.75966522 -186 32 C-185.30632324 31.60458008 -184.61264648 31.20916016 -183.89794922 30.80175781 C-156.63687614 15.42434195 -126.70196241 5.67666493 -96 0 C-95.15179688 -0.16516113 -94.30359375 -0.33032227 -93.4296875 -0.50048828 C-63.91939611 -6.02224752 -29.44532366 -5.76894425 0 0 Z " fill="#FED000" transform="translate(420,248)"/>
<path d="M0 0 C0.66 0 1.32 0 2 0 C2.32162109 0.63389648 2.64324219 1.26779297 2.97460938 1.92089844 C15.59059578 29.8260762 15.59059578 29.8260762 37 50 C45.192167 51.22882505 51.14757416 47.82284948 57.66015625 43.05078125 C60.5073714 40.76891242 63.26281056 38.41275418 66 36 C66.76328613 35.32928467 66.76328613 35.32928467 67.54199219 34.64501953 C74.76933167 28.26228854 81.41480793 21.65105998 87.3125 14 C87.869375 13.34 88.42625 12.68 89 12 C89.66 12 90.32 12 91 12 C91.17539307 12.74870361 91.35078613 13.49740723 91.53149414 14.26879883 C97.19888113 45.83943095 97.19888113 45.83943095 115 71 C131.00967946 74.39105227 151.24696449 60.42247313 164.06982422 52.16137695 C165.28862537 51.36270373 166.50275909 50.55684865 167.71142578 49.74291992 C171.80707742 47 171.80707742 47 174 47 C173.98952637 47.88034912 173.97905273 48.76069824 173.96826172 49.66772461 C171.77630265 80.91775579 171.77630265 80.91775579 181.4375 109.0625 C187.50248174 113.6482179 196.01853475 112.66817909 203.23876953 111.69970703 C215.42119995 109.72015665 227.18271429 106.38323079 238.91381836 102.60083008 C241.25583297 101.92631891 243.60558776 101.44965366 246 101 C244.509166 106.4942574 243.00869438 111.98521916 241.46484375 117.46484375 C234.43696455 139.99488492 234.43696455 139.99488492 235.9375 163.0625 C239.75848387 168.50450734 245.60359232 169.80719018 251.875 171.1875 C262.79450864 173.02065388 273.64958197 173.1278423 284.6875 173.0625 C286.17903494 173.05747144 287.67057154 173.05291095 289.16210938 173.04882812 C292.77477462 173.03793804 296.38737632 173.02074936 300 173 C298.36612091 177.25423415 296.26868808 181.01080235 293.875 184.875 C279.3633084 206.96620473 279.3633084 206.96620473 276 232 C279.83578315 239.19209341 288.89887122 242.71079437 296.25 245.375 C297.03415283 245.66318604 297.81830566 245.95137207 298.6262207 246.24829102 C310.47137516 250.42289908 322.78613492 253.13875129 335 256 C335 258 335 258 333.671875 259.33984375 C333.03765625 259.86707031 332.4034375 260.39429688 331.75 260.9375 C309.74190466 278.93050756 309.74190466 278.93050756 296.55859375 303.04296875 C296.22940433 308.87280721 297.70675136 312.24088906 301.515625 316.62109375 C314.44070536 328.99746787 330.98387767 337.35411245 347 345 C347 345.66 347 346.32 347 347 C346.36610352 347.32162109 345.73220703 347.64324219 345.07910156 347.97460938 C317.1739238 360.59059578 317.1739238 360.59059578 297 382 C295.77343478 390.17710146 299.16592247 396.11326511 303.9140625 402.625 C312.46451216 413.32083521 321.93575862 424.64864777 333.21875 432.5546875 C333.8065625 433.03164063 334.394375 433.50859375 335 434 C335 434.66 335 435.32 335 436 C334.25129639 436.17539307 333.50259277 436.35078613 332.73120117 436.53149414 C301.16056905 442.19888113 301.16056905 442.19888113 276 460 C272.60894773 476.00967946 286.57752687 496.24696449 294.83862305 509.06982422 C295.63729627 510.28862537 296.44315135 511.50275909 297.25708008 512.71142578 C300 516.80707742 300 516.80707742 300 519 C299.08412109 518.98952637 298.16824219 518.97905273 297.22460938 518.96826172 C293.74297441 518.93365563 290.26152879 518.90885175 286.77978516 518.89013672 C285.28854442 518.88023557 283.79732221 518.86671112 282.30615234 518.84912109 C258.84746944 518.06505297 258.84746944 518.06505297 237.9375 526.4375 C233.3517821 532.50248174 234.33182091 541.01853475 235.30029297 548.23876953 C237.27984335 560.42119995 240.61676921 572.18271429 244.39916992 583.91381836 C245.07368109 586.25583297 245.55034634 588.60558776 246 591 C240.5057426 589.509166 235.01478084 588.00869438 229.53515625 586.46484375 C207.00511508 579.43696455 207.00511508 579.43696455 183.9375 580.9375 C178.24309228 584.93570117 176.65424863 591.85254908 175.40673828 598.46240234 C173.74575595 608.82509765 173.87520556 619.28923506 173.9375 629.75 C173.94253015 631.23697764 173.94709035 632.72395695 173.95117188 634.2109375 C173.96204568 637.80732706 173.9792248 641.40365237 174 645 C169.74576585 643.36612091 165.98919765 641.26868808 162.125 638.875 C140.03379527 624.3633084 140.03379527 624.3633084 115 621 C107.80790659 624.83578315 104.28920563 633.89887122 101.625 641.25 C101.33681396 642.03415283 101.04862793 642.81830566 100.75170898 643.6262207 C96.57710092 655.47137516 93.86124871 667.78613492 91 680 C89 680 89 680 87.66015625 678.671875 C87.13292969 678.03765625 86.60570312 677.4034375 86.0625 676.75 C68.06949244 654.74190466 68.06949244 654.74190466 43.95703125 641.55859375 C38.12719279 641.22940433 34.75911094 642.70675136 30.37890625 646.515625 C18.00253213 659.44070536 9.64588755 675.98387767 2 692 C1.34 692 0.68 692 0 692 C-0.32162109 691.36610352 -0.64324219 690.73220703 -0.97460938 690.07910156 C-13.58106496 662.13991332 -13.58106496 662.13991332 -35 642 C-40.71130365 640.62378225 -44.81758908 642.10390568 -49.875 644.875 C-56.25998428 648.8879545 -61.5613752 653.81472729 -67 659 C-68.32701172 660.13244985 -69.659811 661.25817583 -71 662.375 C-74.56294201 665.46387072 -77.75156654 668.84394341 -80.9375 672.3125 C-81.42283203 672.84085449 -81.90816406 673.36920898 -82.40820312 673.91357422 C-84.99660973 676.74838097 -84.99660973 676.74838097 -87 680 C-87.66 680 -88.32 680 -89 680 C-89.17539307 679.25129639 -89.35078613 678.50259277 -89.53149414 677.73120117 C-95.19888113 646.16056905 -95.19888113 646.16056905 -113 621 C-129.00967946 617.60894773 -149.24696449 631.57752687 -162.06982422 639.83862305 C-163.28862537 640.63729627 -164.50275909 641.44315135 -165.71142578 642.25708008 C-169.80707742 645 -169.80707742 645 -172 645 C-171.98428955 643.67947632 -171.98428955 643.67947632 -171.96826172 642.33227539 C-169.77630265 611.08224421 -169.77630265 611.08224421 -179.4375 582.9375 C-185.50248174 578.3517821 -194.01853475 579.33182091 -201.23876953 580.30029297 C-213.42119995 582.27984335 -225.18271429 585.61676921 -236.91381836 589.39916992 C-239.25583297 590.07368109 -241.60558776 590.55034634 -244 591 C-242.509166 585.5057426 -241.00869438 580.01478084 -239.46484375 574.53515625 C-232.43696455 552.00511508 -232.43696455 552.00511508 -233.9375 528.9375 C-237.95483913 523.21583517 -244.89268995 521.65703002 -251.52856445 520.40673828 C-261.69288006 518.73393874 -271.92221222 518.87868903 -282.1875 518.9375 C-283.72721208 518.94252803 -285.26692575 518.94708862 -286.80664062 518.95117188 C-290.53779428 518.96206736 -294.26888654 518.97925918 -298 519 C-296.36612091 514.74576585 -294.26868808 510.98919765 -291.875 507.125 C-277.3633084 485.03379527 -277.3633084 485.03379527 -274 460 C-277.83578315 452.80790659 -286.89887122 449.28920563 -294.25 446.625 C-295.03415283 446.33681396 -295.81830566 446.04862793 -296.6262207 445.75170898 C-308.47137516 441.57710092 -320.78613492 438.86124871 -333 436 C-333 434 -333 434 -331.671875 432.66015625 C-331.03765625 432.13292969 -330.4034375 431.60570312 -329.75 431.0625 C-306.77529843 412.12271571 -306.77529843 412.12271571 -294.4375 386.25 C-294.67663726 380.43461671 -297.96837964 376.91751789 -302 373 C-314.6800675 362.02969644 -329.94992601 354.18470869 -345 347 C-345 346.34 -345 345.68 -345 345 C-344.36610352 344.67837891 -343.73220703 344.35675781 -343.07910156 344.02539062 C-315.13991332 331.41893504 -315.13991332 331.41893504 -295 310 C-293.62378225 304.28869635 -295.10390568 300.18241092 -297.875 295.125 C-301.8879545 288.74001572 -306.81472729 283.4386248 -312 278 C-313.13244985 276.67298828 -314.25817583 275.340189 -315.375 274 C-318.46387072 270.43705799 -321.84394341 267.24843346 -325.3125 264.0625 C-325.84085449 263.57716797 -326.36920898 263.09183594 -326.91357422 262.59179688 C-329.74838097 260.00339027 -329.74838097 260.00339027 -333 258 C-333 257.34 -333 256.68 -333 256 C-332.25129639 255.82460693 -331.50259277 255.64921387 -330.73120117 255.46850586 C-299.16056905 249.80111887 -299.16056905 249.80111887 -274 232 C-270.60894773 215.99032054 -284.57752687 195.75303551 -292.83862305 182.93017578 C-293.63729627 181.71137463 -294.44315135 180.49724091 -295.25708008 179.28857422 C-298 175.19292258 -298 175.19292258 -298 173 C-297.11965088 173.01047363 -296.23930176 173.02094727 -295.33227539 173.03173828 C-264.08224421 175.22369735 -264.08224421 175.22369735 -235.9375 165.5625 C-231.3517821 159.49751826 -232.33182091 150.98146525 -233.30029297 143.76123047 C-235.27984335 131.57880005 -238.61676921 119.81728571 -242.39916992 108.08618164 C-243.07368109 105.74416703 -243.55034634 103.39441224 -244 101 C-238.5057426 102.490834 -233.01478084 103.99130562 -227.53515625 105.53515625 C-205.00511508 112.56303545 -205.00511508 112.56303545 -181.9375 111.0625 C-176.49549266 107.24151613 -175.19280982 101.39640768 -173.8125 95.125 C-171.97934612 84.20549136 -171.8721577 73.35041803 -171.9375 62.3125 C-171.94252856 60.82096506 -171.94708905 59.32942846 -171.95117188 57.83789062 C-171.96206196 54.22522538 -171.97925064 50.61262368 -172 47 C-167.74576585 48.63387909 -163.98919765 50.73131192 -160.125 53.125 C-138.03379527 67.6366916 -138.03379527 67.6366916 -113 71 C-105.80790659 67.16421685 -102.28920563 58.10112878 -99.625 50.75 C-99.33681396 49.96584717 -99.04862793 49.18169434 -98.75170898 48.3737793 C-94.57710092 36.52862484 -91.86124871 24.21386508 -89 12 C-87 12 -87 12 -85.66015625 13.328125 C-85.13292969 13.96234375 -84.60570312 14.5965625 -84.0625 15.25 C-66.06949244 37.25809534 -66.06949244 37.25809534 -41.95703125 50.44140625 C-36.12719279 50.77059567 -32.75911094 49.29324864 -28.37890625 45.484375 C-16.00253213 32.55929464 -7.64588755 16.01612233 0 0 Z M-109 83 C-110.16885742 83.48122314 -110.16885742 83.48122314 -111.36132812 83.97216797 C-136.2827047 94.34203071 -159.24754644 108.76955206 -180 126 C-180.55671387 126.4552002 -181.11342773 126.91040039 -181.68701172 127.37939453 C-195.41214476 138.62751808 -208.08213474 150.9932725 -219 165 C-219.93711793 166.13918188 -220.87743004 167.27574097 -221.8203125 168.41015625 C-233.23434414 182.22646269 -242.55144199 197.22037617 -251 213 C-251.33064453 213.61069336 -251.66128906 214.22138672 -252.00195312 214.85058594 C-269.19527907 246.86161923 -279.61392933 282.85566423 -283 319 C-283.11085938 320.14210938 -283.22171875 321.28421875 -283.3359375 322.4609375 C-287.83865341 377.58878365 -275.83719018 432.28729277 -250 481 C-249.65501465 481.65274902 -249.3100293 482.30549805 -248.95458984 482.97802734 C-238.93070644 501.7745275 -226.46282644 519.1048794 -212.0390625 534.77734375 C-210.18749705 536.79562103 -208.40167 538.85349135 -206.625 540.9375 C-199.63137379 548.93021567 -192.09376815 556.17161953 -183.77734375 562.7734375 C-181.94692326 564.24086321 -180.14592841 565.7458807 -178.37890625 567.2890625 C-124.32829313 614.36292981 -48.78582934 635.03517156 21.79663086 630.53540039 C59.29647348 627.7051651 97.02538443 617.80993746 130.23046875 599.94140625 C131.99230058 599.00409616 133.77754026 598.11122987 135.5625 597.21875 C155.2922863 587.27910259 173.54616032 573.97702969 189.77734375 559.0390625 C191.79562103 557.18749705 193.85349135 555.40167 195.9375 553.625 C203.93021567 546.63137379 211.17161953 539.09376815 217.7734375 530.77734375 C219.24086321 528.94692326 220.7458807 527.14592841 222.2890625 525.37890625 C269.21796504 471.49474291 289.83230643 396.35221848 285.53540039 325.98828125 C282.83004871 288.20225203 272.9441171 250.22396153 254.94140625 216.76953125 C254.00409616 215.00769942 253.11122987 213.22245974 252.21875 211.4375 C242.27910259 191.7077137 228.97702969 173.45383968 214.0390625 157.22265625 C212.18749705 155.20437897 210.40167 153.14650865 208.625 151.0625 C201.63137379 143.06978433 194.09376815 135.82838047 185.77734375 129.2265625 C183.94692326 127.75913679 182.14592841 126.2541193 180.37890625 124.7109375 C166.38410788 112.52255991 150.38000864 102.64949547 134 94 C133.39510742 93.67370605 132.79021484 93.34741211 132.16699219 93.01123047 C100.15210726 75.80856563 64.15226708 65.38681369 28 62 C26.85789062 61.88914063 25.71578125 61.77828125 24.5390625 61.6640625 C-21.10684352 57.93580969 -66.75447257 65.49949336 -109 83 Z " fill="#FED000" transform="translate(371,180)"/>
</svg>
